# xmcd CD database file
#
# Track frame offsets:
#	150
#	23356
#	46022
#	67387
#	85457
#	109417
#	127132
#	145401
#	161801
#	188624
#	213187
#	231793
#	253815
#	270557
#	302408
#
# Disc length: 4465 seconds
#
# Revision: 1
# Processed by: cddbd v1.5.1PL2 Copyright (c) Steve Scherf et al.
# Submitted via: CDex 1.60beta1
#
DISCID=d6116f0f
DTITLE=Paolo Fresu - Incantamento
DYEAR=2006
DGENRE=Jazz
TTITLE0=Imaharat
TTITLE1=Canzoncina
TTITLE2=Default
TTITLE3=Incantamento
TTITLE4=A Propos de Monsieur Queneau
TTITLE5=Riemann's Maid
TTITLE6=Mind Time
TTITLE7=Geometrie Dell' Anima
TTITLE8=Chimichurri
TTITLE9=Like Cab
TTITLE10=Respiro
TTITLE11=Jago's Whisper
TTITLE12=Oh, Dolce Mio Tesoro
TTITLE13=Boiadeh!
TTITLE14=Data track
EXTD=YEAR: 2006
EXTT0=
EXTT1=
EXTT2=
EXTT3=
EXTT4=
EXTT5=
EXTT6=
EXTT7=
EXTT8=
EXTT9=
EXTT10=
EXTT11=
EXTT12=
EXTT13=
EXTT14=
PLAYORDER=
